<svg width="19" height="18" viewBox="0 0 19 18" fill="none" xmlns="http://www.w3.org/2000/svg">
<path d="M4.15322 14.5281C3.28146 14.0131 2.6784 13.179 2.40914 12.1158C2.3582 11.9148 2.1465 11.7911 1.93611 11.8399C1.72578 11.8886 1.59658 12.0909 1.64751 12.292C1.96631 13.5509 2.69026 14.5444 3.74116 15.1653C3.80537 15.2032 3.87648 15.2213 3.9468 15.2213C4.07814 15.2213 4.2064 15.1582 4.28049 15.0436C4.39422 14.8677 4.33733 14.6369 4.15322 14.5281Z" fill="white"/>
<path d="M18.9891 3.43489C18.9386 3.2338 18.727 3.11031 18.5165 3.15815L9.15185 5.30701V4.20586L17.6706 0.71895C17.8695 0.637503 17.9618 0.417383 17.8765 0.227225C17.7913 0.0370171 17.561 -0.0511208 17.362 0.0303755L9.13001 3.39989C9.07688 3.25323 8.93148 3.14776 8.76001 3.14776C8.54361 3.14776 8.36818 3.3154 8.36818 3.52228V3.71174L8.13046 3.80902C8.0975 3.63399 7.93773 3.50111 7.74516 3.50111C7.52871 3.50111 7.35333 3.66875 7.35333 3.87563V4.12711L7.11598 4.22424C7.08406 4.04811 6.92372 3.91399 6.73031 3.91399C6.51391 3.91399 6.33847 4.08162 6.33847 4.28851V4.54249L6.10353 4.63866C6.07835 4.45505 5.91435 4.31323 5.71546 4.31323C5.49901 4.31323 5.32362 4.48086 5.32362 4.68775V4.95786L5.08168 5.05688C5.04098 4.89144 4.88602 4.76825 4.70055 4.76825C4.48416 4.76825 4.30872 4.93589 4.30872 5.14277V5.37323L3.22318 5.81756C3.02423 5.89901 2.93207 6.11913 3.01723 6.30929C3.08092 6.45141 3.22558 6.5365 3.37761 6.5365C3.42902 6.5365 3.48137 6.52676 3.53168 6.50619L4.30872 6.18814V6.41825L3.56068 6.58993C3.35029 6.63822 3.22062 6.84041 3.27114 7.04156C3.31424 7.21329 3.47484 7.32874 3.65179 7.32874C3.6821 7.32874 3.71292 7.32535 3.74364 7.3183L4.30872 7.18862V10.3987H0.391835C0.175437 10.3987 0 10.5664 0 10.7733C0 12.1827 0.36007 13.4819 1.04124 14.5304C1.71624 15.5695 2.69796 16.344 3.89118 16.7824V17.6178C3.89118 17.8247 4.06662 17.9923 4.28301 17.9923H9.3765C9.59295 17.9923 9.76833 17.8247 9.76833 17.6178V16.7824C10.9615 16.3441 11.9433 15.5694 12.6182 14.5304C13.2994 13.4819 13.6596 12.1827 13.6596 10.7733C13.6596 10.5664 13.4841 10.3987 13.2677 10.3987H6.10729V6.77589L6.35383 6.71932C6.40075 6.87602 6.55137 6.99077 6.73031 6.99077C6.94671 6.99077 7.12214 6.82313 7.12214 6.61625V6.54304L7.35573 6.48941C7.37689 6.67717 7.54313 6.82338 7.74516 6.82338C7.96161 6.82338 8.13699 6.65575 8.13699 6.44886V6.31019L8.36818 6.2571V6.97269C8.36818 7.17958 8.54361 7.34722 8.76001 7.34722C8.97641 7.34722 9.15185 7.17958 9.15185 6.97269V6.07728L18.6995 3.88642C18.9099 3.83823 19.0396 3.63604 18.9891 3.43489ZM5.09244 5.8674L5.32367 5.77277V6.18545L5.09244 6.23853V5.8674ZM4.6748 17.2434V16.8843H8.98461V17.2434H4.6748ZM9.33925 16.1353H4.32026C2.21131 15.4285 0.913027 13.583 0.79276 11.1479H12.8666C12.7464 13.583 11.4482 15.4285 9.33925 16.1353ZM5.32362 10.3988H5.09239V7.00885L5.32362 6.95577V10.3988ZM6.10729 5.45203L6.33847 5.3574V5.95254L6.10729 6.00562V5.45203ZM7.12214 5.03666L7.35333 4.94198V5.71969L7.12214 5.77277V5.03666ZM8.13699 5.53992V4.62124L8.36818 4.52656V5.48678L8.13699 5.53992Z" fill="white"/>
</svg>
