<svg width="24" height="29" viewBox="0 0 24 29" fill="none" xmlns="http://www.w3.org/2000/svg">
<path d="M15.405 12.6979L15.3824 14.8084L15.3857 14.8106L15.376 15.7203L15.3663 16.4304L12.3242 14.4754L15.404 12.6979H15.405ZM23.9999 7.73694L23.9773 9.84745L23.9805 9.84966L23.9708 10.7594L23.8321 21.0131H23.8289L23.8203 21.8622L20.7889 19.9138L20.9202 9.51334L23.9999 7.73584V7.73694ZM19.7025 10.2169L19.6799 12.3285L19.6831 12.3307L19.6734 13.2404L19.5927 19.1463L16.556 17.1945L16.6217 11.9943L19.7025 10.2158V10.2169Z" fill="#F0F0F0"/>
<path d="M0.0892499 7.17499L0.0778342 9.2987L0.0747208 9.30081L0.0705697 10.1712L0.00518896 19.9457H0.0083023L0 21.6221L2.94524 23.3712L3.03553 8.9611L1.61895 8.1192L13.8389 0.838713L12.9194 0.292222L12.4275 0C7.48765 2.85586 5.02705 4.31174 0.0913253 7.17393L0.0892499 7.17499ZM8.30542 12.0554L8.29401 14.1791L8.29089 14.1812L8.28674 15.0526L8.22033 24.8271H8.22344L8.21514 26.5035L11.1604 28.2527L11.2507 13.8425L9.83409 13.0006L22.0541 5.7191L21.1346 5.17261L20.6427 4.88039C15.7028 7.73625 13.2422 9.19213 8.30646 12.0543L8.30542 12.0554ZM4.19786 9.61519L4.18644 11.7389L4.18333 11.741L4.17918 12.6114L4.11379 22.3859H4.11691L4.10861 24.0622L7.05385 25.8125L7.14414 11.4023L5.72756 10.5605L17.9475 3.27996L17.028 2.73347L16.5361 2.44125C11.5963 5.29711 9.13566 6.753 4.19993 9.61519H4.19786Z" fill="#F0F0F0"/>
</svg>
