<svg width="78" height="19" viewBox="0 0 78 19" fill="none" xmlns="http://www.w3.org/2000/svg">
<path d="M1.376 18C1.2 18 1.056 17.944 0.944 17.832C0.832 17.72 0.776 17.576 0.776 17.4V1.8C0.776 1.624 0.832 1.48 0.944 1.368C1.056 1.256 1.2 1.2 1.376 1.2H3.56C3.8 1.2 3.976 1.256 4.088 1.368C4.2 1.48 4.272 1.568 4.304 1.632L10.712 11.64V1.8C10.712 1.624 10.768 1.48 10.88 1.368C10.992 1.256 11.128 1.2 11.288 1.2H13.736C13.912 1.2 14.056 1.256 14.168 1.368C14.28 1.48 14.336 1.624 14.336 1.8V17.4C14.336 17.56 14.28 17.704 14.168 17.832C14.056 17.944 13.912 18 13.736 18H11.528C11.288 18 11.112 17.944 11 17.832C10.904 17.704 10.832 17.616 10.784 17.568L4.4 7.872V17.4C4.4 17.576 4.344 17.72 4.232 17.832C4.12 17.944 3.976 18 3.8 18H1.376ZM22.8534 18.24C21.5254 18.24 20.4134 18.024 19.5174 17.592C18.6214 17.144 17.9334 16.512 17.4534 15.696C16.9894 14.88 16.7334 13.928 16.6854 12.84C16.6694 12.52 16.6614 12.16 16.6614 11.76C16.6614 11.344 16.6694 10.984 16.6854 10.68C16.7334 9.576 17.0054 8.624 17.5014 7.824C17.9974 7.008 18.6934 6.384 19.5894 5.952C20.4854 5.504 21.5734 5.28 22.8534 5.28C24.1174 5.28 25.1974 5.504 26.0934 5.952C26.9894 6.384 27.6854 7.008 28.1814 7.824C28.6774 8.624 28.9494 9.576 28.9974 10.68C29.0294 10.984 29.0454 11.344 29.0454 11.76C29.0454 12.16 29.0294 12.52 28.9974 12.84C28.9494 13.928 28.6854 14.88 28.2054 15.696C27.7414 16.512 27.0614 17.144 26.1654 17.592C25.2694 18.024 24.1654 18.24 22.8534 18.24ZM22.8534 15.6C23.6374 15.6 24.2294 15.36 24.6294 14.88C25.0294 14.384 25.2454 13.664 25.2774 12.72C25.2934 12.48 25.3014 12.16 25.3014 11.76C25.3014 11.36 25.2934 11.04 25.2774 10.8C25.2454 9.872 25.0294 9.16 24.6294 8.664C24.2294 8.168 23.6374 7.92 22.8534 7.92C22.0694 7.92 21.4694 8.168 21.0534 8.664C20.6534 9.16 20.4374 9.872 20.4054 10.8C20.3894 11.04 20.3814 11.36 20.3814 11.76C20.3814 12.16 20.3894 12.48 20.4054 12.72C20.4374 13.664 20.6534 14.384 21.0534 14.88C21.4694 15.36 22.0694 15.6 22.8534 15.6ZM36.7874 18.24C35.4594 18.24 34.3474 18.024 33.4514 17.592C32.5554 17.144 31.8674 16.512 31.3874 15.696C30.9234 14.88 30.6674 13.928 30.6194 12.84C30.6034 12.52 30.5954 12.16 30.5954 11.76C30.5954 11.344 30.6034 10.984 30.6194 10.68C30.6674 9.576 30.9394 8.624 31.4354 7.824C31.9314 7.008 32.6274 6.384 33.5234 5.952C34.4194 5.504 35.5074 5.28 36.7874 5.28C38.0514 5.28 39.1314 5.504 40.0274 5.952C40.9234 6.384 41.6194 7.008 42.1154 7.824C42.6114 8.624 42.8834 9.576 42.9314 10.68C42.9634 10.984 42.9794 11.344 42.9794 11.76C42.9794 12.16 42.9634 12.52 42.9314 12.84C42.8834 13.928 42.6194 14.88 42.1394 15.696C41.6754 16.512 40.9954 17.144 40.0994 17.592C39.2034 18.024 38.0994 18.24 36.7874 18.24ZM36.7874 15.6C37.5714 15.6 38.1634 15.36 38.5634 14.88C38.9634 14.384 39.1794 13.664 39.2114 12.72C39.2274 12.48 39.2354 12.16 39.2354 11.76C39.2354 11.36 39.2274 11.04 39.2114 10.8C39.1794 9.872 38.9634 9.16 38.5634 8.664C38.1634 8.168 37.5714 7.92 36.7874 7.92C36.0034 7.92 35.4034 8.168 34.9874 8.664C34.5874 9.16 34.3714 9.872 34.3394 10.8C34.3234 11.04 34.3154 11.36 34.3154 11.76C34.3154 12.16 34.3234 12.48 34.3394 12.72C34.3714 13.664 34.5874 14.384 34.9874 14.88C35.4034 15.36 36.0034 15.6 36.7874 15.6ZM49.6415 18.24C48.8415 18.24 48.1295 18.112 47.5055 17.856C46.8815 17.584 46.3535 17.2 45.9215 16.704C45.4895 16.192 45.1615 15.592 44.9375 14.904C44.7135 14.2 44.5775 13.424 44.5295 12.576C44.5135 12.272 44.5055 12 44.5055 11.76C44.5055 11.504 44.5135 11.232 44.5295 10.944C44.5615 10.112 44.6895 9.352 44.9135 8.664C45.1535 7.976 45.4815 7.384 45.8975 6.888C46.3295 6.376 46.8575 5.984 47.4815 5.712C48.1215 5.424 48.8415 5.28 49.6415 5.28C50.4735 5.28 51.1855 5.424 51.7775 5.712C52.3695 5.984 52.8575 6.344 53.2415 6.792V1.56C53.2415 1.384 53.2975 1.24 53.4095 1.128C53.5215 1.016 53.6655 0.959999 53.8415 0.959999H56.3135C56.4735 0.959999 56.6095 1.016 56.7215 1.128C56.8335 1.24 56.8895 1.384 56.8895 1.56V17.4C56.8895 17.576 56.8335 17.72 56.7215 17.832C56.6095 17.944 56.4735 18 56.3135 18H54.0095C53.8495 18 53.7135 17.944 53.6015 17.832C53.4895 17.72 53.4335 17.576 53.4335 17.4V16.584C53.0335 17.064 52.5295 17.464 51.9215 17.784C51.3135 18.088 50.5535 18.24 49.6415 18.24ZM50.7455 15.36C51.3375 15.36 51.8095 15.224 52.1615 14.952C52.5295 14.68 52.7935 14.336 52.9535 13.92C53.1295 13.504 53.2255 13.056 53.2415 12.576C53.2735 12.272 53.2895 11.968 53.2895 11.664C53.2895 11.36 53.2735 11.064 53.2415 10.776C53.2255 10.328 53.1295 9.912 52.9535 9.528C52.7775 9.128 52.5055 8.8 52.1375 8.544C51.7855 8.288 51.3215 8.16 50.7455 8.16C50.1375 8.16 49.6575 8.296 49.3055 8.568C48.9535 8.824 48.6975 9.168 48.5375 9.6C48.3935 10.032 48.3055 10.504 48.2735 11.016C48.2255 11.512 48.2255 12.008 48.2735 12.504C48.3055 13.016 48.3935 13.488 48.5375 13.92C48.6975 14.352 48.9535 14.704 49.3055 14.976C49.6575 15.232 50.1375 15.36 50.7455 15.36ZM60.0592 18C59.8832 18 59.7392 17.944 59.6272 17.832C59.5152 17.72 59.4592 17.576 59.4592 17.4V1.56C59.4592 1.384 59.5152 1.24 59.6272 1.128C59.7392 1.016 59.8832 0.959999 60.0592 0.959999H62.4592C62.6192 0.959999 62.7552 1.016 62.8672 1.128C62.9792 1.24 63.0352 1.384 63.0352 1.56V17.4C63.0352 17.576 62.9792 17.72 62.8672 17.832C62.7552 17.944 62.6192 18 62.4592 18H60.0592ZM71.1566 18.24C69.3166 18.24 67.8526 17.728 66.7646 16.704C65.6926 15.68 65.1246 14.192 65.0606 12.24C65.0606 12.112 65.0606 11.944 65.0606 11.736C65.0606 11.512 65.0606 11.336 65.0606 11.208C65.1246 9.976 65.4046 8.92 65.9006 8.04C66.3966 7.144 67.0926 6.464 67.9886 6C68.8846 5.52 69.9326 5.28 71.1326 5.28C72.4766 5.28 73.5966 5.56 74.4926 6.12C75.4046 6.664 76.0846 7.416 76.5326 8.376C76.9966 9.32 77.2286 10.408 77.2286 11.64V12.192C77.2286 12.352 77.1646 12.488 77.0366 12.6C76.9246 12.712 76.7886 12.768 76.6286 12.768H68.7806C68.7806 12.784 68.7806 12.816 68.7806 12.864C68.7806 12.896 68.7806 12.928 68.7806 12.96C68.7966 13.472 68.8926 13.944 69.0686 14.376C69.2606 14.792 69.5246 15.128 69.8606 15.384C70.2126 15.64 70.6286 15.768 71.1086 15.768C71.5086 15.768 71.8366 15.712 72.0926 15.6C72.3486 15.488 72.5566 15.352 72.7166 15.192C72.8926 15.032 73.0206 14.896 73.1006 14.784C73.2446 14.624 73.3566 14.528 73.4366 14.496C73.5326 14.448 73.6766 14.424 73.8686 14.424H76.3646C76.5246 14.424 76.6526 14.472 76.7486 14.568C76.8606 14.648 76.9086 14.768 76.8926 14.928C76.8766 15.184 76.7406 15.504 76.4846 15.888C76.2446 16.256 75.8846 16.624 75.4046 16.992C74.9246 17.344 74.3246 17.64 73.6046 17.88C72.9006 18.12 72.0846 18.24 71.1566 18.24ZM68.7806 10.584H73.4846V10.536C73.4846 9.96 73.3886 9.464 73.1966 9.048C73.0206 8.616 72.7566 8.28 72.4046 8.04C72.0526 7.8 71.6286 7.68 71.1326 7.68C70.6366 7.68 70.2126 7.8 69.8606 8.04C69.5086 8.28 69.2366 8.616 69.0446 9.048C68.8686 9.464 68.7806 9.96 68.7806 10.536V10.584Z" fill="white"/>
</svg>
